HIERARCHY
ROOT Hips
{
	OFFSET	0.00	0.00	0.00
	CHANNELS 6 Xposition Yposition Zposition Zrotation Xrotation Yrotation
	JOINT Spine
	{
		OFFSET	 0.00	0.01	 0.00
		CHANNELS 3 Zrotation Xrotation Yrotation
		JOINT Spine1
		{
			OFFSET	 0.00	 2.45913012437421	 0.00
			CHANNELS 3 Zrotation Xrotation Yrotation
            JOINT Neck
            {
                OFFSET	 0.00	 2.48462964506057	 0.00
                CHANNELS 3 Zrotation Xrotation Yrotation
                JOINT Head
                {
                    OFFSET	 0.00	 0.927524780924562	 0.00
                    CHANNELS 3 Zrotation Xrotation Yrotation
                    End Site 
                    {
                        OFFSET	 0.00	 1.14999962169752	 0.00
                    }
                }
            }
			JOINT LeftShoulder
			{
				OFFSET	 0.00	 2.48462964506057	 0.00
				CHANNELS 3 Zrotation Xrotation Yrotation
				JOINT LeftUpArm
				{
					OFFSET	 0.00	 1.24881979654096	 0.00
					CHANNELS 3 Zrotation Xrotation Yrotation
					JOINT LeftForeArm
					{
						OFFSET	 0.00	2.59758046908119	 0.00
						CHANNELS 3 Zrotation Xrotation Yrotation
						JOINT LeftHand
						{
							OFFSET	 0.00	2.45542024364365	 0.00
							CHANNELS 3 Zrotation Xrotation Yrotation
							JOINT LeftHandThumb 
							{
								OFFSET	 0.00	0.00	 0.00
								CHANNELS 3 Zrotation Xrotation Yrotation
								End Site
								{
									OFFSET	 0.00	0.00	1.00000003353624
								}
							}
							JOINT L_Wrist_End 
							{
								OFFSET	 0.00	0.99999967115358	 0.00
								CHANNELS 3 Zrotation Xrotation Yrotation
								End Site 
								{
									OFFSET	 0.00	 0.00	 0.00
								}
							}
						}
					}
				}
			}
			JOINT RightShoulder
			{
				OFFSET	 0.00	 2.48462964506057	 0.00
				CHANNELS 3 Zrotation Xrotation Yrotation
				JOINT RightUpArm
				{
					OFFSET	 0.00	 1.24881979654096	 0.00
					CHANNELS 3 Zrotation Xrotation Yrotation
					JOINT RightForeArm
					{
						OFFSET	 0.00	2.59758046908119	 0.00
						CHANNELS 3 Zrotation Xrotation Yrotation
						JOINT RightHand
						{
							OFFSET	 0.00	2.45542024364365	 0.00
							CHANNELS 3 Zrotation Xrotation Yrotation
							JOINT RightHandThumb 
							{
								OFFSET	 0.00	0.00	 0.00
								CHANNELS 3 Zrotation Xrotation Yrotation
								End Site
								{
									OFFSET	 0.00	0.00	1.00000003353624
								}
							}
							JOINT R_Wrist_End 
							{
								OFFSET	 0.00	0.99999967115358	 0.00
								CHANNELS 3 Zrotation Xrotation Yrotation
								End Site 
								{
									OFFSET	 0.00	 0.00	 0.00
								}
							}
						}
					}
				}
			}
		}
	}
	JOINT LeftUpLeg
	{
		OFFSET	 1.2719394002717	 0.00	 0.00
		CHANNELS 3 Zrotation Xrotation Yrotation
		JOINT LeftLowLeg
		{
			OFFSET	 0.00	-4.3429100912261	 0.00
			CHANNELS 3 Zrotation Xrotation Yrotation
			JOINT LeftFoot
			{
				OFFSET	 0.00	-4.48767017425826	 0.00
				CHANNELS 3 Zrotation Xrotation Yrotation
				JOINT LeftToeBase
                {
                    OFFSET	 0.00	0.00	 1.51507020887566
                    CHANNELS 3 Zrotation Xrotation Yrotation
                    End Site 
                    {
                        OFFSET	 0.00	0.00	 0.75000010571191
                    }
                }
			}
		}
	}
	JOINT RightUpLeg
	{
		OFFSET	 -1.2719393604653	 0.00	 0.00
		CHANNELS 3 Zrotation Xrotation Yrotation
		JOINT RightLowLeg
		{
			OFFSET	 0.00	-4.3429100912261	 0.00
			CHANNELS 3 Zrotation Xrotation Yrotation
			JOINT RightFoot
			{
				OFFSET	 0.00	-4.48767017425826	 0.00
				CHANNELS 3 Zrotation Xrotation Yrotation
				JOINT RightToeBase
                {
                    OFFSET	 0.00	0.00	 1.51507020887566
                    CHANNELS 3 Zrotation Xrotation Yrotation
                    End Site 
                    {
                        OFFSET	 0.00	0.00	 0.749999965609858
                    }
                }   
			}
		}
	}
}
MOTION 
Frames:	6 
Frame Time: 0.02 
 2.984150085449219 8.496400146484374 9.829979858398438 -153.147 83.3583 153.658 2.31104 -7.5263 -1.16005 -0.2193 4.42781 -1.3907 0.0379419 28.3659 -0.672275 15.1847 -55.3748 7.4404 -92.95656 -12.1739 -3.29085 -12.5421 0.729638 -32.3977 0.0 19.539 0.0 27.01 -5.95101 17.0173 0.0 0.0 0.0 0.0 0.0 0.0 100.8025 -10.1578 1.11453 7.4581 1.77087 35.6028 0.0 18.505 0.0 -17.3908 -1.57374 -24.6723 0.0 0.0 0.0 0.0 0.0 0.0 4.38682 -4.30496 5.87205 0.0 7.22187 0.0 9.58502 6.55505 -1.16819 0.0 -37.452698 0.0 1.51169 -2.85571 6.6661 0.0 6.6194 0.0 10.7371 9.61035 -6.37903 0.0 -27.8693 0.0 
  2.981570129394531 8.49677978515625 9.829819946289062 -153.137 83.3586 153.635 2.29481 -7.52634 -1.17392 -0.20129 4.43429 -1.4013 -0.121921 28.3786 -0.487492 15.1286 -55.3263 7.41882 -92.95436 -12.1808 -3.29725 -12.5108 0.73326 -32.342 0.0 19.5123 0.0 27.0329 -5.89558 17.2559 0.0 0.0 0.0 0.0 0.0 0.0 100.7991 -10.1623 1.11456 7.47128 1.80212 35.6041 0.0 18.4991 0.0 -17.4332 -1.5704 -24.6783 0.0 0.0 0.0 0.0 0.0 0.0 4.4106 -4.32097 5.94446 0.0 7.25772 0.0 9.58464 6.531 -1.22251 0.0 -37.4557 0.0 1.52908 -2.87267 6.72326 0.0 6.64809 0.0 10.7577 9.58971 -6.39982 0.0 -27.8614 0.0 
  2.9788800048828126 8.496790161132813 9.829879760742188 -153.082 83.3718 153.579 2.29146 -7.5116 -1.17221 -0.214776 4.43885 -1.39906 -0.240581 28.4 -0.354177 15.1034 -55.3252 7.41573 -92.94245 -12.1744 -3.3035 -12.4827 0.755792 -32.3312 0.0 19.4787 0.0 27.0616 -5.85824 17.3114 0.0 0.0 0.0 0.0 0.0 0.0 100.815796 -10.2042 1.10956 7.47822 1.82547 35.5749 0.0 18.4912 0.0 -17.3816 -1.54774 -24.6638 0.0 0.0 0.0 0.0 0.0 0.0 4.42842 -4.31275 5.94936 0.0 7.26966 0.0 9.5708 6.53337 -1.23281 0.0 -37.4588 0.0 1.54705 -2.86732 6.76828 0.0 6.66514 0.0 10.7662 9.57984 -6.43162 0.0 -27.8805 0.0 
  2.976889953613281 8.496939697265624 9.829910278320312 -152.974 83.3844 153.466 2.28015 -7.50203 -1.18423 -0.195555 4.45878 -1.40876 -0.318245 28.4156 -0.271058 15.0712 -55.3324 7.42142 -92.94114 -12.1883 -3.32503 -12.4768 0.744164 -32.2772 0.0 19.4964 0.0 27.0436 -5.87981 17.3329 0.0 0.0 0.0 0.0 0.0 0.0 100.8073 -10.1814 1.10396 7.49615 1.80363 35.5818 0.0 18.504 0.0 -17.4475 -1.54904 -24.5632 0.0 0.0 0.0 0.0 0.0 0.0 4.44817 -4.30443 5.9775 0.0 7.28833 0.0 9.5673 6.5178003 -1.24915 0.0 -37.4629 0.0 1.56721 -2.86056 6.80357 0.0 6.68099 0.0 10.7717 9.57537 -6.4579 0.0 -27.8799 0.0 
  2.974169921875 8.4972900390625 9.829949951171875 -152.896 83.3955 153.383 2.2207 -7.50822 -1.22714 -0.0932333 4.51569 -1.4392 -0.508011 28.3957 -0.0758849 15.0179 -55.3334 7.37567 -92.97539 -12.2488 -3.34482 -12.4729 0.749842 -32.2304 0.0 19.4954 0.0 26.997 -5.86477 17.3855 0.0 0.0 0.0 0.0 0.0 0.0 100.7602 -10.1268 1.10655 7.51223 1.79434 35.571 0.0 18.5049 0.0 -17.4691 -1.63217 -24.4956 0.0 0.0 0.0 0.0 0.0 0.0 4.46996 -4.29826 6.01018 0.0 7.30027 0.0 9.56245 6.5179996 -1.27454 0.0 -37.4675 0.0 1.58763 -2.85815 6.7993 0.0 6.70033 0.0 10.7622 9.571 -6.44817 0.0 -27.871 0.0 
  2.9716500854492187 8.4977001953125 9.829810180664062 -152.87 83.4045 153.353 2.20551 -7.50594 -1.23488 -0.081886 4.54661 -1.44386 -0.605513 28.3758 0.0231577 14.9872 -55.3234 7.34039 -92.96325 -12.2515 -3.34432 -12.4646 0.741878 -32.237 0.0 19.5079 0.0 26.9495 -5.8818 17.416 0.0 0.0 0.0 0.0 0.0 0.0 100.7583 -10.128 1.14618 7.52532 1.78551 35.5479 0.0 18.512 0.0 -17.4049 -1.69374 -24.5481 0.0 0.0 0.0 0.0 0.0 0.0 4.48553 -4.29528 6.03239 0.0 7.30942 0.0 9.54951 6.5099297 -1.29271 0.0 -37.4541 0.0 1.60279 -2.8616 6.79246 0.0 6.72307 0.0 10.741 9.55803 -6.43641 0.0 -27.875 0.0 
